# xmcd
#
# Track frame offsets:
#	150
#	19288
#	56284
#	101650
#
# Disc length: 1880 seconds
#
# Revision: 1
# Processed by: cddbd v1.5.2PL0 Copyright (c) Steve Scherf et al.
# Submitted via: audiograbber 1.83.01
#
DISCID=2a075604
DTITLE=Martin Roth, Alex Bartlett - Off The World
DYEAR=2008
DGENRE=Trance
TTITLE0=Off The World - MRs Exclusive
TTITLE1=Off The World - Gareth Emery R
TTITLE2=Off The World - Lange Remix
TTITLE3=Off The World - Super8 and Tab R
EXTD=
EXTT0=
EXTT1=
EXTT2=
EXTT3=
PLAYORDER=
